<?xml version="1.0" encoding="utf-8"?>
<!-- Generator: Adobe Illustrator 23.0.0, SVG Export Plug-In . SVG Version: 6.00 Build 0)  -->
<svg version="1.1" id="Layer_1" xmlns="http://www.w3.org/2000/svg" xmlns:xlink="http://www.w3.org/1999/xlink" x="0px" y="0px"
	 viewBox="0 0 500 148" style="enable-background:new 0 0 500 148;" xml:space="preserve">
<style type="text/css">
	.st0{fill:#FFFFFF;}
</style>
<title>logo-roomkey-white</title>
<path class="st0" d="M2.4,17.2c0.1,0,1.2-0.4,3.3-1.2c2-0.8,5-1.8,8.7-3s8.3-2.5,13.5-3.9S39,6.4,45.5,5.2c0.3-0.7,0.5-1.4,0.6-2.1
	c0.3-1,0.9-2,1.7-2.7C48.3,0,49-0.1,49.6,0.1c0.7,0.3,1.4,0.7,1.9,1.2c0.7,0.6,1.3,1.2,2,1.8l-0.2,0.8c6.2-1,12.7-1.8,19.5-2.4
	c6.8-0.6,14-0.9,21.5-0.9c6.8-0.1,13.6,0.6,20.2,2c4.9,1,9.6,2.7,14,5.1c3.1,1.6,5.7,3.8,7.8,6.6c1.6,2.4,2.2,4.6,1.8,6.7
	c-0.8,3.8-2.5,7.3-5.1,10.2c-2.8,3.2-5.9,6-9.4,8.3c-3.9,2.6-8,4.8-12.3,6.6c-4.5,1.9-9,3.6-13.5,5c-11.7,3.5-23.7,6-35.9,7.6
	c9.8,5.9,19.2,11.2,28.4,15.9s17.2,8.8,24.2,12.1s14.7,6.8,23.2,10.5c0.7,0.2,0.9,0.5,0.7,1c-0.3,0.5-0.8,1-1.3,1.3
	c-0.7,0.5-1.6,0.8-2.4,1c-0.8,0.2-1.6,0.2-2.4-0.1c-0.4-0.1-3.3-1.2-8.6-3.4s-12.2-5.1-20.4-9s-17.5-8.5-27.8-14
	C65,68.3,54.8,62.1,44.9,55.3c-0.3-0.4-0.5-1-0.4-1.5c0.1-0.3,0.5-0.5,0.8-0.5c0.4,0,1-0.1,1.8-0.1c4.7,0.5,9.4,0.5,14.1,0.1
	c5.9-0.4,11.7-1.3,17.4-2.5c6.1-1.3,12.2-2.9,18.1-5c5.7-1.9,11.1-4.3,16.4-7.2c4.5-2.4,8.6-5.5,12-9.3c2.9-3.1,4.7-7.1,5.1-11.3
	c0.3-3.5-2.4-6.3-8.1-8.6S108.4,6,98.1,6c-9,0-17.3,0.3-25,1S58.4,8.5,51.9,9.6c-1.1,4-2.3,9.2-3.7,15.8s-2.8,13.7-4.3,21.4
	c-1.6,8.3-2.6,15.3-3.2,21.1s-0.8,10.5-0.9,14.2c-0.1,2.7,0,5.4,0.2,8.1c0.2,1.7,0.3,2.6,0.3,2.8c0,0.9-0.4,1.4-1.3,1.4
	c-1,0-2-0.2-3-0.5c-1.1-0.4-2.1-0.8-3.1-1.4c-0.9-0.6-1.4-1.1-1.4-1.6c-0.3-3.8-0.3-7.6-0.2-11.4c0.1-3.5,0.4-7.6,0.8-12.4
	c0.5-5.3,1.2-10.5,2.2-15.7c0.7-3.7,1.4-7.4,2.2-11.2s1.7-7.4,2.6-11s1.8-6.9,2.7-10s1.6-5.9,2.3-8.3c-6.7,1.3-12.7,2.7-17.8,4.1
	s-9.4,2.8-12.8,4S6.6,21.6,3,23.2c-0.4,0.1-0.9,0.2-1.3,0.3c-0.2,0-0.5,0-0.7-0.1c-0.3-0.1-0.4-0.2-0.4-0.5v-4
	c0-0.2,0.1-0.4,0.4-0.8c0.1-0.4,0.7-0.8,1.8-1.3C2.6,17.2,2.4,17.2,2.4,17.2z"/>
<path class="st0" d="M169.4,77.2c2.1,0.1,4.2-0.2,6.1-0.9c1.6-0.6,3.1-1.3,4.5-2.2c1.3-0.9,2.5-2,3.6-3.3l1.8-2.2
	c0.8-1,1.5-1.1,2.1-0.4s0.6,2.1-0.1,4.1c-1.3,2.1-3,3.8-5,5.2c-2.3,1.5-4.8,2.6-7.4,3.3c-3.8,0.9-7.7,1.1-11.6,0.6h-0.8
	c-1.5,3.4-3.8,6.5-6.6,8.9c-3,2.5-7,3.7-12,3.5c-2.1,0-4.1-0.6-5.9-1.7c-1.5-0.9-2.8-2.2-3.7-3.7c-0.8-1.4-1.4-2.9-1.8-4.5
	c-0.3-1.4-0.4-2.8-0.1-4.2c0.8-4.9,1.9-8.5,3.4-10.8c1.1-1.9,2.5-3.6,4-5.1c0.5-0.5,1.1-0.9,1.8-1.2c0.7-0.2,1.3-0.4,2-0.6
	c0.4-1.5,1.4-2.9,2.7-3.8c1.9-1.2,4-1.8,6.2-1.9c1.5,0,2.9,0.2,4.3,0.7c1.6,0.7,3.1,1.7,4.3,3c1.4,1.6,2.5,3.5,3.1,5.5
	c0.7,2.7,0.9,5.5,0.5,8.3c0,0.4,0,0.9-0.1,1.3c-0.1,0.4-0.2,0.8-0.3,1.3C166,77,167.7,77.2,169.4,77.2z M139,79.9
	c0,0.8,0,1.7,0.1,2.8c0.1,1.1,0.3,2.1,0.7,3.1c0.4,1,1.1,1.9,2,2.5c1.1,0.7,2.5,1.1,3.8,1.1c1.2,0.1,2.5-0.1,3.6-0.7
	c1.2-0.6,2.2-1.3,3.2-2.2c0.9-1,1.8-2,2.6-3.1c0.8-1.1,1.4-2.2,1.8-3.5c-1.8-0.8-3.5-1.7-5.1-2.7c-1.3-0.8-2.5-1.9-3.5-3.1
	c-1.3-1.5-2.5-3.1-3.4-4.8c-0.7,0.5-1.3,1.1-1.8,1.8c-0.7,0.9-1.3,1.9-1.9,2.9c-0.6,1-1.1,2.1-1.5,3.3C139.2,78.1,139,79,139,79.9z
	 M157.9,74.4c0-1.3,0-2.7-0.1-4.3c-0.1-1.4-0.3-2.9-0.6-4.3c-0.2-1.2-0.7-2.3-1.5-3.2c-0.7-0.9-1.7-1.3-2.8-1.1
	c-1.7,0.1-2.8,0.9-3.1,2.2c-0.3,1.3-0.2,2.8,0.5,4C151.4,70.3,153.9,72.5,157.9,74.4z"/>
<path class="st0" d="M214.2,77.2c2.1,0.1,4.2-0.2,6.1-0.9c1.6-0.6,3.1-1.3,4.5-2.2c1.3-0.9,2.5-2,3.6-3.3l1.8-2.2
	c0.8-1,1.5-1.1,2.1-0.4s0.6,2.1-0.1,4.1c-1.3,2.1-3,3.8-5,5.2c-2.3,1.5-4.8,2.6-7.4,3.3c-3.8,0.9-7.7,1.1-11.6,0.6h-0.8
	c-1.5,3.4-3.8,6.5-6.6,8.9c-3,2.5-7,3.7-12,3.5c-2.1,0-4.1-0.6-5.9-1.7c-1.5-0.9-2.8-2.2-3.7-3.7c-0.9-1.4-1.5-2.9-1.8-4.5
	c-0.3-1.4-0.4-2.8-0.1-4.2c0.8-4.9,1.9-8.5,3.4-10.8c1.1-1.9,2.5-3.6,4-5.1c0.5-0.5,1.1-0.9,1.8-1.2c0.7-0.2,1.3-0.4,2-0.6
	c0.4-1.5,1.4-2.9,2.7-3.8c1.9-1.2,4-1.8,6.2-1.9c1.5,0,2.9,0.2,4.3,0.7c1.6,0.7,3.1,1.7,4.3,3c1.4,1.6,2.5,3.5,3.1,5.5
	c0.7,2.7,0.9,5.5,0.5,8.3c0,0.4,0,0.9-0.1,1.3c-0.1,0.4-0.2,0.8-0.3,1.3C210.8,77,212.5,77.2,214.2,77.2z M183.9,79.9
	c0,0.8,0,1.7,0.1,2.8c0.1,1.1,0.3,2.1,0.7,3.1c0.4,1,1.1,1.9,2,2.5c1.1,0.7,2.5,1.1,3.8,1.1c1.2,0.1,2.5-0.1,3.6-0.7
	c1.2-0.6,2.2-1.3,3.2-2.2c0.9-1,1.8-2,2.6-3.1c0.8-1.1,1.4-2.2,1.8-3.5c-1.8-0.8-3.5-1.7-5.1-2.7c-1.3-0.8-2.5-1.9-3.5-3.1
	c-1.3-1.5-2.5-3.1-3.4-4.8c-0.7,0.5-1.3,1.1-1.8,1.8c-0.7,0.9-1.3,1.9-1.9,2.9c-0.6,1-1.1,2.1-1.5,3.3
	C184.1,78.1,183.9,79,183.9,79.9z M202.7,74.4c0-1.3,0-2.7-0.1-4.3c-0.1-1.4-0.3-2.9-0.6-4.3c-0.2-1.2-0.7-2.3-1.5-3.2
	c-0.7-0.9-1.7-1.3-2.8-1.1c-1.7,0.1-2.8,0.9-3.1,2.2c-0.3,1.3-0.2,2.8,0.5,4C196.2,70.3,198.7,72.5,202.7,74.4z"/>
<path class="st0" d="M322.7,75.6c-0.4,0.5-1.3,1.7-2.8,3.7c-1.7,2.2-3.7,4.3-5.8,6.1c-2.6,2.2-5.4,4.1-8.4,5.7
	c-3.3,1.7-6.9,2.5-10.6,2.4c-3.6-0.1-6.3-0.8-8.2-2.1c-1.8-1.2-3.3-2.9-4.3-4.9c-0.9-1.9-1.4-4.1-1.5-6.2c-0.1-2.1,0-4.1,0.2-6.2
	c0.1-1.6,0.4-3.2,0.7-4.8c0.3-1.2,0.3-1.9,0-1.9s-0.7,0.6-1.2,1.8s-1.2,2.7-2,4.5s-1.7,3.8-2.7,5.9c-1,2.1-2.1,4-3.4,5.9
	c-1.2,1.7-2.5,3.2-4.1,4.5c-1.3,1.1-2.9,1.8-4.6,1.8c-1.5,0.1-2.9-0.5-3.8-1.6c-0.9-1.1-1.4-2.5-1.5-3.9c-0.2-1.6-0.2-3.3-0.1-4.9
	c0.1-1.7,0.2-3.4,0.3-4.9c0.1-1.3,0-2.5-0.2-3.8c-0.2-1-0.7-1.6-1.5-1.6c-0.4,0-1,0.5-1.7,1.6s-1.6,2.5-2.5,4.2s-2,3.5-3.1,5.5
	c-1.1,1.9-2.3,3.8-3.6,5.5c-1.2,1.5-2.5,2.9-4,4.1c-1.3,1.1-2.9,1.6-4.5,1.5c-1.5,0-3-0.7-3.9-1.9c-0.8-1.3-1.3-2.8-1.3-4.3
	c-0.1-1.8-0.1-3.6,0.1-5.4c0.2-1.9,0.4-3.8,0.6-5.5c0.2-1.4,0.3-2.8,0.2-4.2c-0.1-1.1-0.5-1.6-1.3-1.6c-0.4,0-1.1,0.8-2.2,2.4
	c-0.4,0.5-1.1,0.7-1.7,0.6c-0.6-0.1-1.1-0.5-1.3-1.1c-0.3-0.9-0.2-1.8,0.1-2.6c0.5-1.5,1.3-2.9,2.3-4.1c0.5-0.7,1.2-1.2,2-1.5
	c0.8-0.3,1.7-0.4,2.5-0.3c0.9,0.2,1.8,0.5,2.6,1.1c1,0.8,1.8,1.8,2.3,2.9c0.6,1.5,0.8,3.2,0.7,4.8c-0.1,2-0.2,3.9-0.4,5.8
	s-0.4,3.6-0.5,5.1s0.1,2.3,0.6,2.4c0.8,0.3,1.9-0.6,3.4-2.5s2.9-4.3,4.5-6.8s2.9-5,4.2-7.3s2.1-3.8,2.5-4.3c0.8-1,1.9-1.7,3.1-2.1
	c1.2-0.4,2.5-0.5,3.8-0.2c1.3,0.2,2.5,0.9,3.4,1.8c1,1.1,1.6,2.5,1.5,4c0,0.6-0.1,1.8-0.3,3.6c-0.2,1.8-0.4,3.7-0.5,5.6
	c-0.1,1.7-0.2,3.5-0.1,5.2c0.1,1.6,0.4,2.4,0.9,2.5s1.2-0.8,2.4-2.8s2.5-4.3,3.8-6.8s2.6-5,3.8-7.5s2-4.1,2.4-4.9
	c0.9-1.7,2.8-2.6,4.7-2.3c2.2,0.2,4.2,1,5.9,2.3c0.4,0.4,0.5,1.2,0.4,2.5s-0.4,2.8-0.7,4.6s-0.6,3.7-0.8,5.7
	c-0.2,1.8-0.1,3.7,0.4,5.5c0.4,1.6,1.3,3.1,2.6,4.3c1.2,1.2,3.2,1.8,5.9,1.9c2.9,0.2,5.7-0.4,8.2-1.9c2.6-1.5,5-3.3,7.2-5.4
	c2.2-2.1,4.2-4.3,6-6.6c1.8-2.3,3.2-4.2,4.4-5.8c0.3-0.5,0.8-0.8,1.4-0.7c0.5,0.1,1,0.6,1.1,1.1c0.2,0.9,0.2,1.8-0.1,2.7
	C324.1,72.9,323.5,74.3,322.7,75.6z"/>
<path class="st0" d="M419.1,75c-0.4,0.5-1.3,1.7-2.7,3.7c-1.8,2.3-4,4.4-6.4,6c-3.4,2.4-7.2,4.3-11.1,5.7
	c-5.4,1.8-11.1,2.8-16.8,2.7c-3.4,0.1-6.8-0.3-10-1.3c-2.2-0.7-4.3-1.7-6.1-3.1c-1.3-1-2.4-2.2-3.4-3.5c-0.7-1.1-1.3-2-1.7-2.5
	c-0.4-0.9-0.5-2-0.2-3c0.2-0.6,0.6-1.1,1.1-1.5c0.5-0.3,1-0.5,1.5-0.6c0.5-0.1,1-0.2,1.4-0.3c2.2-0.4,4.4-1,6.5-1.9
	c1.9-0.8,3.7-1.9,5.4-3.1c1.4-1,2.6-2.3,3.6-3.6c0.8-0.9,1.2-2.1,1.3-3.3V64c0-0.5-0.1-1-0.3-1.5c-0.2-0.5-0.7-1-1.2-1.2
	c-0.9-0.4-1.9-0.6-2.9-0.5c-1.6,0-3.6,0.9-6,2.6c-2.7,1.9-5.1,4.2-7.3,6.7c-2.6,2.8-4.9,5.9-6.9,9.2c-2.1,3.1-3.7,6.5-4.9,10
	c-0.3,1.1-0.7,2.2-1.3,3.2c-0.3,0.6-0.8,1.1-1.3,1.6c-0.3,0.3-0.7,0.4-1.1,0.5c-0.3,0.1-0.6,0.1-0.9,0.1c-1,0-1.9-0.5-2.4-1.4
	c-0.6-1.2-1-2.4-1.1-3.7c-0.2-1.7-0.3-3.4-0.3-5.1c0-1.9,0.1-3.7,0.2-5.5c0.1-1.2,0.5-3.4,1.1-6.6s1.3-6.9,2.1-11.1
	s1.6-8.5,2.6-13.1s1.8-8.9,2.7-12.9s1.6-7.4,2.3-10.4s1.1-4.8,1.2-5.4c0.2-0.9,0.4-1.7,0.5-2.6c0-0.5,0.2-1,0.5-1.4
	c0.3-0.3,0.8-0.5,1.3-0.5c1,0,2,0.2,2.9,0.5c0.9,0.1,1.7,0.6,2.2,1.4c0.4,0.7,0.6,1.5,0.6,2.3c0,1-0.1,2-0.4,3
	c-1.9,5.9-3.6,12-5.2,18.4c-1.5,5.5-2.8,11.6-4.1,18.3c-1.3,6.6-2.1,13.4-2.5,20.1c0.8-0.7,1.4-1.5,2-2.4c0.9-1.3,2-2.8,3.3-4.6
	c1.3-1.9,2.8-3.7,4.3-5.4c1.6-1.8,3.2-3.6,5-5.2c1.7-1.5,3.6-2.7,5.6-3.8c1.9-1,3.9-1.4,6-1.3c4.1,0.2,6.8,1.3,8.1,3.3
	c1.3,1.8,1.7,4,1.2,6.1c-0.8,2.8-2.3,5.4-4.5,7.3c-2.1,1.9-4.4,3.5-6.8,4.9c-2.8,1.5-5.8,2.7-8.9,3.7c0.9,1.3,2.1,2.4,3.4,3.3
	c4,2.3,8.5,3.4,13.1,3.2c5,0.1,10-0.7,14.7-2.2c3.6-1.2,6.9-3,9.9-5.4c2.4-1.9,4.6-4.1,6.5-6.6c1.6-2.3,3.1-4.2,4.3-5.8
	c0.3-0.5,0.8-0.8,1.4-0.7c0.5,0.1,1,0.6,1.1,1.1c0.2,0.9,0.2,1.8-0.1,2.7C420.6,72.2,420,73.5,419.1,75z"/>
<path class="st0" d="M418.7,87.7c3.4,0.1,6.7-0.7,9.7-2.2c2.8-1.4,5.4-3.1,7.8-5.2c2.2-1.9,4.2-4.1,6-6.4c1.7-2.2,3.2-4.1,4.4-5.7
	c0.3-0.5,0.8-0.8,1.4-0.8c0.5,0.1,1,0.6,1.1,1.1c0.2,0.9,0.2,1.8-0.1,2.7c-0.4,1.5-1.1,2.8-2,4c-0.4,0.5-1.3,1.7-2.7,3.7
	c-1.7,2.2-3.5,4.3-5.6,6.1c-2.5,2.2-5.3,4.1-8.3,5.6c-3.2,1.6-6.7,2.5-10.3,2.5c-3.7,0-7.3-0.6-10.7-2c-2.4-1-4.4-2.6-6-4.6
	c-1.4-1.8-2.3-3.9-2.7-6.1c-0.4-2.1-0.5-4.2-0.4-6.3c0.2-2.4,0.9-4.8,2-7c1.2-2.7,2.7-5.2,4.6-7.4c1.7-2.2,3.9-3.9,6.5-4.9
	c2.5-1.1,5.3-0.9,7.7,0.4c1.7,0.7,3.2,1.9,4.1,3.5c0.6,1.3,0.8,2.8,0.5,4.3c-0.3,1.6-0.9,3.1-1.6,4.6c-0.8,1.5-1.5,3-2.2,4.3
	c-1.5,3-3.4,5.8-5.5,8.4c-1.7,2-3.5,3.9-5.4,5.7C413.4,87.2,416,87.8,418.7,87.7z M416.5,69.9c0.5-1.2,1.1-2.4,1.6-3.6
	c0.5-1,0.8-2.2,1-3.3c0.1-0.8,0.1-1.7-0.2-2.5c-0.3-0.7-1-1.2-1.8-1.2c-1.1-0.1-2.2,0.6-3.6,2c-3.1,3.6-5.3,8-6.2,12.7
	c-0.5,2.3-0.5,4.7,0.2,7c1.7-1.7,3.4-3.4,4.9-5.3C414,74,415.4,72,416.5,69.9z"/>
<path class="st0" d="M473.8,88.4c0,1.4-0.2,2.8-0.6,4.2c1-0.3,2-0.3,3,0.1c0.8,0.4,1.6,0.8,2.4,1.3c0.4,0.3,0.5,0.6,0.3,0.8
	c-0.3,0.3-0.6,0.5-0.9,0.7c-0.5,0.3-1,0.5-1.6,0.7c-0.4,0.1-0.8,0.3-1.2,0.5c-0.4,0.2-0.8,0.4-1.2,0.7c-0.5,0.3-1,0.6-1.6,0.8
	c-0.1,0.5-0.2,0.9-0.3,1.3c-0.1,0.4,0,0.9,0.1,1.3c-0.4,2.7-0.6,5.4-0.6,8.1c0,2.8-0.1,5.5-0.4,8.3c-0.2,3.1-0.6,6.2-1.3,9.3
	c-0.7,3.5-1.9,6.8-3.5,10c-1.6,3.1-3.8,5.8-6.5,7.9c-3,2.2-6.7,3.3-10.5,3.1c-2.2,0-4.4-0.6-6.4-1.6c-1.7-0.9-3.2-2.2-4.4-3.7
	c-1.1-1.4-1.9-2.9-2.3-4.6c-0.4-1.5-0.5-3.1-0.2-4.7c0.8-4.9,2.6-9.7,5.2-13.9c2.4-3.9,5.2-7.6,8.5-10.8c2.9-2.9,6.1-5.6,9.5-7.9
	c3.2-2.1,6-3.8,8.2-5c0.3-2.2,0.5-4.5,0.8-7.1s0.5-5.1,0.8-7.7c-2.1,3-4.4,5.7-7.1,8.2c-2.3,2.2-5.5,3.4-8.7,3.3
	c-3.3,0.1-6.4-1.4-8.5-3.9c-2-2.5-2.8-5.9-2.4-10.1c0.2-2.1,0.6-4.2,1.3-6.2c0.5-1.7,1.2-3.4,1.9-5.1c0.6-1.2,1.4-2.3,2.3-3.3
	c0.6-0.7,1.7-1,2.6-0.7c0.7,0.1,1.3,0.5,1.7,1.1c0.3,0.5,0.5,1,0.5,1.6c-0.1,0.7-0.3,1.4-0.6,2c-0.5,1.6-1.1,3.1-1.6,4.6
	c-0.4,1.3-0.7,2.7-1,4.1c-0.3,1.2-0.4,2.5-0.4,3.8c0,2,0.2,4,0.5,5.9c0.3,1.7,1.2,2.6,2.7,2.5c2-0.2,3.9-0.8,5.5-2
	c1.8-1.3,3.5-2.8,4.9-4.6c1.5-1.8,2.9-3.8,4.1-5.8c1.3-2.1,2.4-4,3.3-5.8c0.8-4.5,2.1-7.6,3.8-9.3s3.3-2.3,4.8-1.9
	c1.1,0.3,2,1,2.6,1.9c0.8,1,0.7,2.6-0.4,4.7l-0.4,0.1c-0.4,1.1-1,2.7-1.7,4.7s-1.4,4.2-2.1,6.4s-1.3,4.4-1.9,6.5
	C474.2,84.9,473.9,86.6,473.8,88.4z M466.9,100.8c-2.4,1.4-5,3.1-7.7,5c-2.8,1.9-5.4,4.2-7.7,6.7c-2.4,2.5-4.4,5.3-6,8.4
	c-1.6,3.1-2.5,6.4-2.6,9.9c0,0.7,0,1.7-0.1,2.9c-0.1,1.2,0.1,2.5,0.4,3.7c0.3,1.2,0.9,2.4,1.8,3.3c0.9,1,2.3,1.4,4.2,1.4
	c2.5,0.1,5-0.7,6.9-2.3c1.7-1.4,3.2-3.2,4.2-5.2c1-1.8,1.7-3.7,2.1-5.7c0.2-1.3,0.6-2.6,1-3.8c0.1-0.6,0.4-1.9,0.7-4s0.7-4.3,1-6.6
	s0.6-4.4,0.9-6.4c0.2-1.1,0.3-2.3,0.4-3.4c0-0.5,0-0.9,0.1-1.4c0.1-0.8,0.2-1.7,0.3-2.8L466.9,100.8L466.9,100.8z"/>
<path class="st0" d="M486.9,53c0.5,0.3,1,0.5,1.6,0.5c0.9,0,1.5-0.5,1.5-1.2s-0.4-1-1.3-1.4c-1.1-0.4-1.9-1-1.9-2
	c0.1-1.1,1.1-2,2.2-1.9c0,0,0,0,0.1,0c0.5,0,1.1,0.1,1.6,0.3l-0.3,0.7c-0.4-0.2-0.8-0.3-1.3-0.3c-1,0-1.3,0.6-1.3,1.1
	c0,0.7,0.4,1,1.4,1.4c1.2,0.5,1.8,1,1.8,2.1s-0.8,2-2.5,2c-0.6,0-1.2-0.1-1.8-0.4L486.9,53z"/>
<path class="st0" d="M498.1,51c-0.1-1-0.1-2.2-0.1-3l0,0c-0.2,0.9-0.5,1.8-0.9,2.7l-1.2,3.3h-0.7l-1.1-3.3c-0.3-1-0.6-1.9-0.8-2.7
	l0,0c0,0.9-0.1,2.1-0.1,3.1l-0.2,3h-0.9l0.5-7h1.2l1.2,3.4c0.3,0.9,0.5,1.6,0.7,2.4l0,0c0.2-0.7,0.4-1.5,0.7-2.4l1.3-3.4h1.2l0.4,7
	h-0.9L498.1,51z"/>
<path class="st0" d="M290,131c0.9-0.9,2.1-1.3,3.5-1.3c1.4,0,2.6,0.4,3.5,1.3c0.9,0.9,1.4,2.1,1.4,3.5c0,1.4-0.5,2.6-1.4,3.5
	c-0.9,0.9-2.1,1.4-3.5,1.4c-1.4,0-2.6-0.5-3.5-1.4s-1.3-2.1-1.3-3.5C288.6,133,289.1,131.9,290,131z"/>
<path class="st0" d="M317.2,107.1c3.1,0,5.9,0.6,8.3,1.8c2.4,1.2,4.3,3,5.7,5.2l-7.2,4.4c-1.6-2.2-3.7-3.3-6.4-3.3
	c-1.9,0-3.5,0.7-4.8,2.2c-1.2,1.5-1.8,3.4-1.8,5.8c0,2.4,0.6,4.4,1.8,5.8c1.2,1.5,2.8,2.2,4.8,2.2c3,0,5.1-1.2,6.4-3.6l7.4,4.3
	c-1.3,2.3-3.2,4.1-5.6,5.4c-2.5,1.3-5.4,1.9-8.7,1.9c-4.9,0-8.8-1.5-11.8-4.4c-3-2.9-4.5-6.8-4.5-11.6c0-4.8,1.5-8.7,4.5-11.7
	C308.4,108.6,312.3,107.1,317.2,107.1z"/>
<path class="st0" d="M350,107.1c5.1,0,9.3,1.5,12.4,4.4c3.2,2.9,4.7,6.8,4.7,11.6c0,4.8-1.6,8.7-4.7,11.7s-7.3,4.4-12.4,4.4
	c-5.2,0-9.3-1.5-12.5-4.4s-4.7-6.9-4.7-11.7c0-4.8,1.6-8.7,4.7-11.6C340.7,108.6,344.8,107.1,350,107.1z M350,115.1
	c-2.1,0-3.8,0.8-5.1,2.3c-1.3,1.5-2,3.5-2,5.9c0,2.5,0.7,4.4,2,5.9c1.3,1.5,3,2.2,5.1,2.2c2.1,0,3.7-0.7,5.1-2.2
	c1.3-1.5,2-3.5,2-5.9c0-2.4-0.7-4.4-2-5.9C353.7,115.8,352.1,115.1,350,115.1z"/>
<path class="st0" d="M412.3,107c3.5,0,6.2,1.1,8.3,3.3c2,2.2,3.1,5.1,3.1,8.8v19.9h-10v-17c0-1.9-0.5-3.3-1.5-4.4
	c-1-1.1-2.3-1.6-4-1.6c-1.9,0-3.4,0.8-4.5,2.1s-1.7,3.2-1.7,5.3v15.6h-10.1v-17c0-1.9-0.5-3.3-1.4-4.4s-2.3-1.6-3.9-1.6
	c-1.9,0-3.4,0.8-4.6,2.2c-1.1,1.4-1.7,3.2-1.7,5.3v15.6h-10v-31.5h10v5.2c2.1-3.7,5.6-5.6,10.4-5.7c2.5,0,4.7,0.6,6.6,1.9
	c1.8,1.3,3.2,3,3.9,5.2C403.3,109.4,407,107,412.3,107z"/>
</svg>
